<svg width="627" height="413" viewBox="0 0 627 413" fill="none" xmlns="http://www.w3.org/2000/svg">
<path fill-rule="evenodd" clip-rule="evenodd" d="M387.533 18.8035C365.515 5.04237 337.98 0 312.172 0V0.167325C287.128 0.498988 260.697 5.6551 239.42 18.9536C232.431 23.3213 223.875 31.7427 218.56 37.904C217.258 39.4132 215.964 40.7978 214.722 42.1267C209.408 47.8145 205.045 52.4839 205.045 61.5553C205.045 64.5846 204.393 67.636 203.737 70.7099C203.071 73.8294 202.4 76.9722 202.4 80.1385C202.4 86.2266 205.049 91.7935 207.696 97.3556C210.338 102.908 212.977 108.456 212.977 114.514V136.696C212.977 153.187 210.829 167.114 207.983 183.337C207.367 186.846 206.499 190.368 205.636 193.872C205.234 195.507 204.832 197.138 204.457 198.762C204.044 200.55 203.151 202.441 202.253 204.344C201.074 206.839 199.886 209.356 199.756 211.69C198.596 232.576 193.137 252.854 187.714 272.999C186.874 276.119 186.035 279.235 185.213 282.35C182.243 293.605 177.4 304.797 172.579 315.403C169.505 322.165 165.062 327.473 160.56 332.85C158.359 335.479 156.145 338.124 154.07 340.964C151.523 344.448 146.169 346.362 141.67 347.97C140.423 348.416 139.242 348.838 138.204 349.264C132.27 351.698 126.109 353.19 119.947 354.683C115.026 355.875 110.105 357.067 105.298 358.739C89.9542 364.076 66.8039 368.592 52.5599 357.196C51.8573 356.634 51.154 356.128 50.475 355.638C47.6854 353.628 45.3059 351.914 45.0679 347.868C44.9962 346.648 42.6816 340.671 41.7626 339.935C41.0338 339.352 41.0043 338.301 40.9756 337.276C40.9595 336.706 40.9438 336.144 40.8078 335.675C39.0675 329.681 38.3668 323.668 37.6577 317.585C37.4029 315.399 37.147 313.203 36.8414 310.996C36.5746 309.069 36.2031 307.188 35.834 305.32C35.1583 301.9 34.491 298.522 34.491 294.983C34.491 291.01 35.2706 287.276 36.621 283.525C39.1029 276.631 42.2019 269.899 45.2845 263.202C46.4503 260.67 47.6137 258.142 48.7405 255.613C49.2971 254.364 49.8156 253.131 50.3262 251.916C52.4193 246.936 54.3802 242.271 58.2891 238.132C59.156 237.214 59.9498 236.351 60.7042 235.53C64.2484 231.675 66.9253 228.764 72.2449 225.572C78.3876 221.886 86.9769 218.536 93.9864 216.978C95.3181 216.682 96.5746 216.363 97.7981 216.052C101.314 215.158 104.558 214.334 108.53 214.334C108.684 214.334 108.841 214.334 109 214.335C111.902 214.345 115.417 214.358 116.389 210.955C120.308 197.239 91.2627 200.518 84.805 201.847C62.4906 206.441 52.1378 219.544 39.7794 237.544C36.5664 242.224 33.4083 246.961 30.2475 251.701C23.0855 262.443 15.9094 273.205 8.04851 283.378C3.03118 289.871 0.115783 303.296 0.115783 311.143C0.115783 312.781 0.0870014 314.433 0.0581379 316.09C-0.0123138 320.133 -0.0832517 324.205 0.262686 328.183C1.39636 341.22 8.09138 349.786 15.4 359.137C16.9043 361.061 18.4345 363.019 19.9476 365.056C22.8957 369.024 25.6988 373.1 28.5001 377.173C34.7704 386.291 41.0314 395.394 48.8874 403.25C56.0182 410.381 66.2893 410.74 76.1619 411.085C79.292 411.194 82.382 411.302 85.3192 411.624C103.707 413.639 119.368 408.302 135.797 402.704C141.825 400.65 147.956 398.561 154.363 396.787C158.956 395.515 163.535 394.681 168.063 393.856C177.053 392.218 185.846 390.616 194.174 385.695C202.046 381.044 208.427 370.396 213.115 362.574C213.267 362.321 213.417 362.071 213.565 361.824C214.784 359.792 216.211 357.66 217.684 355.46C221.691 349.476 226.034 342.988 227.447 336.63C227.788 335.095 228.216 334.428 229.43 333.325C233.127 329.965 237.159 326.829 241.178 323.704C243.711 321.734 246.24 319.768 248.675 317.753C258.486 309.634 265.729 303.578 272.546 292.927C280.684 280.211 296.625 263.313 314.781 263.313V263.278C331.846 264.782 346.661 280.674 354.407 292.777C361.224 303.428 368.467 309.484 378.278 317.603C380.714 319.618 383.242 321.584 385.775 323.554C389.794 326.679 393.826 329.815 397.523 333.175C398.737 334.278 399.165 334.945 399.506 336.48C400.919 342.838 405.263 349.326 409.269 355.311C410.742 357.51 412.169 359.642 413.388 361.674C413.536 361.921 413.686 362.171 413.838 362.424C418.526 370.246 424.907 380.893 432.779 385.545C441.107 390.466 449.9 392.068 458.89 393.706C463.418 394.531 467.997 395.365 472.59 396.637C478.997 398.411 485.128 400.5 491.156 402.554C507.585 408.152 523.246 413.489 541.634 411.474C544.571 411.152 547.661 411.044 550.791 410.935C560.664 410.59 570.935 410.231 578.066 403.1C585.922 395.244 592.183 386.14 598.453 377.023C601.254 372.95 604.057 368.874 607.005 364.906C608.519 362.869 610.049 360.911 611.553 358.987C618.862 349.636 625.557 341.07 626.69 328.033C627.036 324.055 626.965 319.983 626.895 315.94C626.866 314.283 626.837 312.631 626.837 310.992C626.837 303.146 623.922 289.721 618.905 283.228C611.044 273.055 603.868 262.293 596.706 251.551C593.545 246.811 590.387 242.074 587.174 237.394C574.815 219.394 564.462 206.291 542.148 201.697C535.69 200.367 506.645 197.089 510.564 210.805C511.536 214.208 515.051 214.195 517.953 214.185C518.112 214.184 518.269 214.184 518.423 214.184C522.395 214.184 525.639 215.008 529.155 215.902C530.378 216.213 531.635 216.532 532.967 216.828C539.976 218.386 548.566 221.736 554.708 225.422C560.028 228.613 562.705 231.525 566.249 235.38C567.003 236.201 567.797 237.064 568.664 237.982C572.573 242.121 574.534 246.786 576.627 251.766C577.138 252.98 577.656 254.214 578.213 255.463C579.339 257.992 580.503 260.52 581.669 263.052C584.751 269.749 587.85 276.481 590.332 283.375C591.683 287.126 592.462 290.86 592.462 294.833C592.462 298.372 591.795 301.75 591.119 305.17C590.75 307.038 590.378 308.919 590.112 310.846C589.806 313.053 589.55 315.249 589.295 317.435C588.586 323.519 587.886 329.531 586.145 335.525C586.009 335.994 585.994 336.556 585.978 337.126C585.949 338.151 585.919 339.202 585.19 339.785C584.271 340.521 581.957 346.498 581.885 347.718C581.647 351.764 579.268 353.478 576.478 355.488C575.799 355.978 575.096 356.484 574.393 357.046C560.149 368.441 536.999 363.926 521.655 358.589C516.848 356.917 511.927 355.725 507.006 354.533C500.844 353.04 494.683 351.548 488.749 349.114C487.711 348.688 486.53 348.266 485.283 347.82C480.784 346.212 475.43 344.298 472.884 340.814C470.808 337.974 468.594 335.329 466.393 332.7C461.891 327.323 457.448 322.015 454.374 315.253C449.553 304.647 444.71 293.455 441.74 282.2C440.918 279.085 440.079 275.969 439.24 272.849C433.816 252.704 428.357 232.426 427.197 211.539C427.067 209.206 425.879 206.689 424.7 204.194C423.802 202.291 422.909 200.4 422.496 198.612C422.121 196.988 421.719 195.357 421.317 193.722C420.454 190.218 419.586 186.696 418.97 183.187C416.124 166.964 413.976 153.037 413.976 136.546V114.364C413.976 108.306 416.615 102.758 419.257 97.2056C421.904 91.6434 424.553 86.0765 424.553 79.9884C424.553 76.8221 423.882 73.6793 423.216 70.5598C422.56 67.4859 421.908 64.4345 421.908 61.4052C421.908 52.3338 417.545 47.6644 412.231 41.9765C410.989 40.6476 409.695 39.2631 408.393 37.7539C403.078 31.5926 394.522 23.1712 387.533 18.8035Z" fill="#0B5000"/>
</svg>
