<svg width="865" height="569" viewBox="0 0 865 569" fill="none" xmlns="http://www.w3.org/2000/svg">
<path fill-rule="evenodd" clip-rule="evenodd" d="M534.892 25.9223C504.538 6.95134 466.578 0 431 0V0.230673C396.474 0.687903 360.037 7.79606 330.704 26.1292C321.07 32.1505 309.275 43.76 301.947 52.254C300.152 54.3346 298.368 56.2433 296.657 58.0753C289.33 65.9164 283.315 72.3537 283.315 84.8593C283.315 89.0355 282.417 93.2421 281.513 97.4797C280.595 101.78 279.67 106.113 279.67 110.478C279.67 118.871 283.321 126.545 286.97 134.213C290.612 141.868 294.251 149.517 294.251 157.867V188.447C294.251 211.182 291.289 230.381 287.366 252.747C286.517 257.584 285.321 262.439 284.131 267.269C283.576 269.524 283.022 271.772 282.505 274.011C281.936 276.476 280.705 279.082 279.466 281.706C277.842 285.146 276.203 288.615 276.025 291.833C274.425 320.626 266.899 348.582 259.423 376.353C258.265 380.654 257.109 384.95 255.975 389.244C251.881 404.76 245.205 420.189 238.559 434.81C234.321 444.132 228.195 451.45 221.989 458.863C218.955 462.487 215.902 466.134 213.042 470.048C209.531 474.852 202.151 477.49 195.948 479.707C194.229 480.321 192.6 480.904 191.17 481.49C182.989 484.847 174.496 486.904 166.001 488.961C159.217 490.604 152.433 492.248 145.806 494.553C124.653 501.91 92.7383 508.136 73.1018 492.426C72.1331 491.651 71.1636 490.953 70.2275 490.278C66.3818 487.508 63.1015 485.144 62.7734 479.567C62.6745 477.885 59.4837 469.644 58.2168 468.631C57.2121 467.827 57.1714 466.377 57.1317 464.965C57.1096 464.178 57.0879 463.403 56.9004 462.758C54.5013 454.494 53.5353 446.205 52.5578 437.819C52.2065 434.804 51.8537 431.777 51.4324 428.735C51.0646 426.078 50.5524 423.486 50.0437 420.911C49.1121 416.196 48.1921 411.539 48.1921 406.66C48.1921 401.183 49.2669 396.035 51.1286 390.864C54.5501 381.36 58.8223 372.079 63.072 362.847C64.6791 359.356 66.2829 355.872 67.8363 352.385C68.6036 350.663 69.3184 348.963 70.0224 347.288C72.9079 340.423 75.6112 333.992 81 328.286C82.1951 327.02 83.2893 325.83 84.3294 324.699C89.2154 319.384 92.9057 315.371 100.239 310.97C108.707 305.89 120.549 301.271 130.212 299.123C132.048 298.715 133.78 298.275 135.467 297.846C140.314 296.614 144.785 295.478 150.261 295.478C150.474 295.478 150.691 295.479 150.91 295.479C154.91 295.494 159.755 295.511 161.096 290.82C166.498 271.912 126.457 276.431 117.554 278.264C86.792 284.597 72.5198 302.661 55.4828 327.476C51.0534 333.927 46.6997 340.457 42.3422 346.992C32.4687 361.8 22.5758 376.637 11.7389 390.661C4.82209 399.612 0.802958 418.12 0.802958 428.937C0.802958 431.196 0.76328 433.474 0.723489 435.758C0.626365 441.332 0.528571 446.945 1.00548 452.429C2.56834 470.402 11.798 482.21 21.8736 495.101C23.9474 497.754 26.0569 500.453 28.1429 503.261C32.207 508.732 36.0714 514.351 39.9332 519.966C48.5773 532.535 57.2086 545.085 68.0389 555.916C77.8694 565.746 92.0289 566.241 105.639 566.716C109.954 566.867 114.214 567.016 118.263 567.459C143.613 570.237 165.202 562.881 187.851 555.163C196.161 552.331 204.614 549.451 213.447 547.005C219.779 545.251 226.09 544.102 232.333 542.964C244.726 540.707 256.849 538.499 268.329 531.715C279.182 525.302 287.978 510.624 294.441 499.84C294.65 499.491 294.857 499.146 295.061 498.806C296.742 496.004 298.71 493.066 300.74 490.033C306.263 481.783 312.251 472.839 314.199 464.074C314.67 461.958 315.26 461.039 316.933 459.517C322.029 454.885 327.588 450.562 333.128 446.255C336.621 443.539 340.106 440.829 343.463 438.05C356.988 426.857 366.975 418.509 376.372 403.825C387.591 386.296 409.567 363 434.596 363V362.952C458.122 365.025 478.546 386.934 489.224 403.618C498.622 418.302 508.608 426.65 522.133 437.843C525.49 440.622 528.975 443.332 532.468 446.048C538.008 450.356 543.567 454.678 548.663 459.31C550.337 460.832 550.927 461.751 551.397 463.867C553.345 472.632 559.333 481.576 564.856 489.826C566.886 492.859 568.854 495.797 570.535 498.599C570.739 498.939 570.946 499.284 571.155 499.633C577.618 510.417 586.414 525.095 597.267 531.508C608.747 538.292 620.87 540.5 633.263 542.757C639.506 543.895 645.817 545.045 652.149 546.798C660.983 549.244 669.435 552.124 677.745 554.956C700.394 562.674 721.984 570.03 747.333 567.252C751.382 566.809 755.642 566.66 759.957 566.509C773.567 566.034 787.727 565.539 797.557 555.709C808.387 544.879 817.019 532.328 825.663 519.759C829.525 514.144 833.389 508.525 837.453 503.054C839.539 500.246 841.649 497.547 843.722 494.894C853.798 482.004 863.028 470.195 864.591 452.222C865.068 446.738 864.97 441.125 864.873 435.551C864.833 433.267 864.793 430.99 864.793 428.73C864.793 417.913 860.774 399.405 853.857 390.454C843.02 376.43 833.127 361.593 823.254 346.785C818.896 340.25 814.543 333.72 810.113 327.269C793.076 302.454 778.804 284.39 748.042 278.057C739.139 276.224 699.098 271.705 704.5 290.613C705.841 295.304 710.686 295.287 714.686 295.273C714.905 295.272 715.122 295.271 715.335 295.271C720.811 295.271 725.282 296.407 730.13 297.639C731.816 298.068 733.548 298.508 735.384 298.916C745.047 301.064 756.889 305.683 765.357 310.764C772.69 315.164 776.381 319.178 781.267 324.492C782.307 325.623 783.401 326.813 784.596 328.079C789.985 333.785 792.688 340.216 795.574 347.081C796.278 348.756 796.992 350.456 797.76 352.178C799.313 355.665 800.917 359.149 802.524 362.64C806.774 371.872 811.046 381.153 814.467 390.657C816.329 395.828 817.404 400.976 817.404 406.453C817.404 411.332 816.484 415.989 815.552 420.704C815.044 423.279 814.531 425.872 814.164 428.528C813.742 431.57 813.39 434.597 813.038 437.612C812.061 445.998 811.095 454.287 808.696 462.551C808.508 463.196 808.486 463.971 808.464 464.758C808.425 466.17 808.384 467.62 807.379 468.424C806.112 469.437 802.922 477.678 802.823 479.36C802.495 484.937 799.214 487.301 795.369 490.072C794.433 490.746 793.463 491.445 792.494 492.219C772.858 507.929 740.943 501.703 719.79 494.346C713.163 492.041 706.379 490.398 699.595 488.755C691.1 486.697 682.607 484.64 674.426 481.284C672.996 480.697 671.367 480.115 669.648 479.5C663.445 477.283 656.065 474.645 652.554 469.841C649.694 465.927 646.641 462.28 643.607 458.656C637.401 451.243 631.275 443.925 627.037 434.603C620.391 419.982 613.715 404.553 609.621 389.037C608.488 384.743 607.331 380.447 606.173 376.146C598.697 348.375 591.171 320.419 589.571 291.626C589.393 288.408 587.754 284.939 586.13 281.499C584.891 278.875 583.66 276.269 583.091 273.804C582.574 271.565 582.02 269.317 581.465 267.063C580.275 262.232 579.079 257.377 578.23 252.54C574.307 230.174 571.345 210.975 571.345 188.24V157.66C571.345 149.31 574.984 141.661 578.626 134.006C582.275 126.338 585.926 118.664 585.926 110.271C585.926 105.906 585.001 101.573 584.083 97.2728C583.179 93.0352 582.281 88.8286 582.281 84.6524C582.281 72.1468 576.266 65.7096 568.939 57.8685C567.228 56.0364 565.444 54.1277 563.649 52.0471C556.321 43.5531 544.526 31.9436 534.892 25.9223Z" fill="#128100"/>
</svg>
